Coordinates
version=1
nRows=35
nColumns=34
inDegrees=no

Units are S.I. units (second, meters, Newtons, ...)
If the header above contains a line with 'inDegrees', this indicates whether rotational values are in degrees (yes) or radians (no).

endheader
time	pelvis_tilt	pelvis_list	pelvis_rotation	pelvis_tx	pelvis_ty	pelvis_tz	hip_flexion_r	hip_adduction_r	hip_rotation_r	knee_angle_r	ankle_angle_r	subtalar_angle_r	mtp_angle_r	hip_flexion_l	hip_adduction_l	hip_rotation_l	knee_angle_l	ankle_angle_l	subtalar_angle_l	mtp_angle_l	lumbar_extension	lumbar_bending	lumbar_rotation	arm_flex_r	arm_add_r	arm_rot_r	elbow_flex_r	pro_sup_r	arm_flex_l	arm_add_l	arm_rot_l	elbow_flex_l	pro_sup_l
6.73	-0.607307	0.0478652	0.0324598	-0.365697	0.611741	-0.604085	1.84235	-0.376882	0.205932	1.64171	0.415172	-0.471462	-0.00241763	1.79104	-0.314125	0.0797765	1.6091	0.386171	-0.463756	-0.00241763	-0.379029	-0.013692	-0.0490713	1.61519	-0.162619	0.43118	2.03427	2.09	1.59272	-0.164372	0.400506	2.0196	2.09
6.74	-0.6063	0.0478538	0.0329474	-0.365563	0.611943	-0.604351	1.84096	-0.377518	0.206368	1.64146	0.415645	-0.470917	-0.00241763	1.78946	-0.313425	0.0789004	1.6089	0.387275	-0.464178	-0.00241763	-0.37802	-0.0136052	-0.047977	1.61583	-0.163529	0.431487	2.03389	2.09	1.59145	-0.16252	0.400677	2.0185	2.09
6.75	-0.60556	0.0474323	0.0329044	-0.365413	0.612239	-0.604587	1.83941	-0.377446	0.206017	1.64081	0.415612	-0.470973	-0.00241763	1.78818	-0.312983	0.0787848	1.6085	0.387772	-0.464185	-0.00241763	-0.376999	-0.0131217	-0.0475422	1.61665	-0.16278	0.431821	2.03325	2.09	1.5911	-0.161814	0.400962	2.01852	2.09
6.76	-0.605078	0.0469601	0.0326489	-0.365252	0.612592	-0.604843	1.83782	-0.377052	0.205544	1.63985	0.415935	-0.470529	-0.00241763	1.78707	-0.312631	0.0788125	1.60797	0.388206	-0.463687	-0.00241763	-0.375911	-0.0125743	-0.0481103	1.61782	-0.160855	0.432306	2.03226	2.09	1.59216	-0.162629	0.401531	2.01903	2.09
6.77	-0.60451	0.046544	0.0325427	-0.365096	0.612979	-0.605112	1.83603	-0.376873	0.205165	1.63882	0.417031	-0.468924	-0.00241763	1.78573	-0.312065	0.0785966	1.60731	0.389054	-0.463299	-0.00241763	-0.374456	-0.0122021	-0.0478896	1.61877	-0.160234	0.432524	2.03152	2.09	1.59221	-0.162046	0.40041	2.0187	2.09
6.78	-0.603557	0.0458439	0.0324999	-0.364946	0.613399	-0.605335	1.8337	-0.376681	0.204359	1.63777	0.417968	-0.467739	-0.00241763	1.78417	-0.311418	0.0787474	1.60667	0.389765	-0.463103	-0.00241763	-0.372758	-0.0119302	-0.0460363	1.61903	-0.161628	0.431968	2.03142	2.09	1.59079	-0.159342	0.398792	2.01725	2.09
6.79	-0.602478	0.0451078	0.0326242	-0.364769	0.613877	-0.605553	1.83108	-0.376438	0.203366	1.63654	0.41868	-0.467553	-0.00241763	1.78252	-0.310567	0.0792178	1.60602	0.389619	-0.462368	-0.00241763	-0.371042	-0.0118284	-0.0447747	1.61884	-0.162967	0.431055	2.03134	2.09	1.59027	-0.157203	0.399424	2.01537	2.09
6.8	-0.602387	0.0448067	0.0322102	-0.3645	0.61441	-0.605684	1.82907	-0.375286	0.202373	1.6348	0.4198	-0.46717	-0.00241763	1.78144	-0.310504	0.0793764	1.60521	0.389269	-0.460454	-0.00241763	-0.368089	-0.012099	-0.0449099	1.6178	-0.161942	0.430805	2.0303	2.09	1.59031	-0.157338	0.40034	2.01428	2.09
6.81	-0.603766	0.0447696	0.0305185	-0.364106	0.614998	-0.60562	1.828	-0.372598	0.200782	1.63245	0.421054	-0.465965	-0.00241763	1.7812	-0.312153	0.0790583	1.60409	0.390313	-0.457585	-0.00241763	-0.36295	-0.0124444	-0.0449281	1.61544	-0.158335	0.431473	2.02808	2.09	1.58891	-0.159831	0.399492	2.0149	2.09
6.82	-0.604799	0.0449346	0.0293028	-0.363642	0.615741	-0.605649	1.82658	-0.370908	0.199293	1.63008	0.422393	-0.463716	-0.00241763	1.77991	-0.313006	0.0779368	1.60241	0.392813	-0.454729	-0.00241763	-0.357887	-0.012509	-0.0454107	1.61271	-0.15437	0.432007	2.0253	2.09	1.58712	-0.163335	0.399078	2.01578	2.09
6.83	-0.603418	0.0454764	0.0302866	-0.36318	0.616765	-0.606024	1.82314	-0.372267	0.199104	1.62812	0.424568	-0.460065	-0.00241763	1.77555	-0.310777	0.0757307	1.60012	0.395329	-0.452407	-0.00241763	-0.355568	-0.0126198	-0.0473586	1.6106	-0.152466	0.431266	2.02246	2.09	1.58622	-0.164631	0.399436	2.01416	2.09
6.84	-0.600567	0.0459444	0.0315666	-0.362703	0.618029	-0.60641	1.81785	-0.374025	0.198781	1.626	0.42742	-0.455591	-0.00241763	1.76953	-0.308322	0.0733076	1.59757	0.397423	-0.44956	-0.00241763	-0.354597	-0.0131737	-0.0487223	1.6082	-0.152335	0.429386	2.01942	2.09	1.58483	-0.163018	0.398255	2.00985	2.09
6.85	-0.598601	0.0458305	0.0307606	-0.36214	0.61938	-0.606434	1.81237	-0.373311	0.196292	1.62308	0.43009	-0.451288	-0.00241763	1.76459	-0.309049	0.0716238	1.59511	0.39994	-0.444801	-0.00241763	-0.35196	-0.0140872	-0.0477201	1.60427	-0.152051	0.427145	2.01601	2.09	1.58211	-0.161793	0.396179	2.00481	2.09
6.86	-0.597225	0.0452801	0.0283754	-0.361504	0.620806	-0.606221	1.80678	-0.37088	0.192287	1.61957	0.432652	-0.447104	-0.00241763	1.76038	-0.311931	0.0707553	1.59272	0.403555	-0.438427	-0.00241763	-0.348205	-0.0152932	-0.0450846	1.59922	-0.151525	0.424254	2.01224	2.09	1.57942	-0.161933	0.395146	1.99896	2.09
6.87	-0.594658	0.0444708	0.0257658	-0.360848	0.622443	-0.606046	1.79958	-0.36828	0.188084	1.61575	0.435846	-0.442089	-0.00241763	1.75495	-0.314675	0.0704685	1.59022	0.408017	-0.431695	-0.00241763	-0.345533	-0.0166507	-0.0418651	1.59392	-0.151777	0.420072	2.00751	2.09	1.57708	-0.160685	0.393814	1.99074	2.09
6.88	-0.591845	0.0436381	0.0236395	-0.360087	0.624317	-0.60602	1.79154	-0.366265	0.18381	1.61134	0.439626	-0.436008	-0.00241763	1.74872	-0.316487	0.0697874	1.58725	0.411907	-0.425524	-0.00241763	-0.342401	-0.017262	-0.0392092	1.58798	-0.151656	0.416041	2.0004	2.09	1.57221	-0.157898	0.389155	1.98123	2.09
6.89	-0.590605	0.0433713	0.0228544	-0.359115	0.626395	-0.606181	1.78455	-0.365783	0.179893	1.60622	0.444082	-0.428545	-0.00241763	1.74263	-0.316517	0.0673053	1.58307	0.41548	-0.418879	-0.00241763	-0.336419	-0.016504	-0.0387195	1.58076	-0.149286	0.414091	1.99021	2.09	1.56317	-0.157155	0.381634	1.97238	2.09
6.9	-0.589332	0.0435913	0.0235088	-0.358062	0.628756	-0.606495	1.77737	-0.366914	0.176616	1.60071	0.449131	-0.419512	-0.00241763	1.73519	-0.314248	0.0634298	1.57743	0.419277	-0.411971	-0.00241763	-0.330136	-0.0155861	-0.0402014	1.57287	-0.146061	0.412552	1.9781	2.09	1.55434	-0.159374	0.375692	1.96206	2.09
6.91	-0.586071	0.04339	0.0239766	-0.357112	0.631432	-0.606766	1.76782	-0.367828	0.172577	1.59481	0.453739	-0.41076	-0.00241763	1.72564	-0.311578	0.0601098	1.57111	0.423097	-0.405535	-0.00241763	-0.326398	-0.0159649	-0.0411765	1.56502	-0.144747	0.40837	1.96538	2.09	1.54953	-0.161248	0.373059	1.94697	2.09
6.92	-0.582745	0.0424463	0.0231371	-0.356171	0.634295	-0.606844	1.75728	-0.367014	0.16668	1.58794	0.457403	-0.404504	-0.00241763	1.71629	-0.310524	0.0577997	1.56464	0.426739	-0.398761	-0.00241763	-0.322327	-0.0166601	-0.0403364	1.55672	-0.144627	0.402653	1.95118	2.09	1.54483	-0.161749	0.370024	1.92867	2.09
6.93	-0.580619	0.0412493	0.0218542	-0.355087	0.637331	-0.606835	1.74689	-0.365094	0.159946	1.58004	0.460808	-0.398986	-0.00241763	1.7078	-0.310254	0.0554812	1.55775	0.430074	-0.390865	-0.00241763	-0.315959	-0.0160005	-0.0387941	1.54798	-0.143653	0.398155	1.93404	2.09	1.53663	-0.163335	0.364461	1.90976	2.09
6.94	-0.576952	0.0401514	0.0210057	-0.353942	0.640717	-0.606888	1.73435	-0.363161	0.153683	1.57179	0.46511	-0.389415	-0.00241763	1.69717	-0.309312	0.0526558	1.55027	0.433491	-0.381879	-0.00241763	-0.311084	-0.015094	-0.0371251	1.53961	-0.143454	0.393726	1.91468	2.09	1.52832	-0.165221	0.35883	1.88788	2.09
6.95	-0.571294	0.0394615	0.0204238	-0.352779	0.644484	-0.606957	1.71959	-0.361238	0.148122	1.56321	0.469903	-0.376219	-0.00241763	1.68367	-0.307764	0.0487603	1.54194	0.437597	-0.37264	-0.00241763	-0.308287	-0.0158653	-0.0351446	1.53055	-0.145735	0.387767	1.89421	2.09	1.52139	-0.164786	0.353804	1.86114	2.09
6.96	-0.567586	0.039799	0.020051	-0.351416	0.648478	-0.606928	1.70645	-0.359128	0.143221	1.55352	0.474088	-0.364741	-0.00241763	1.67036	-0.305802	0.0427305	1.53193	0.442623	-0.363418	-0.00241763	-0.302075	-0.017349	-0.0342466	1.51877	-0.146896	0.382741	1.87103	2.09	1.51086	-0.164994	0.346528	1.83366	2.09
6.97	-0.56637	0.0413206	0.0197543	-0.349817	0.652674	-0.606761	1.69537	-0.356666	0.138784	1.54256	0.477136	-0.357767	-0.00241763	1.65782	-0.303681	0.0349501	1.52035	0.447576	-0.352976	-0.00241763	-0.291851	-0.018215	-0.0349094	1.50507	-0.144192	0.380018	1.84381	2.09	1.49547	-0.169223	0.336741	1.80797	2.09
6.98	-0.563255	0.0431093	0.0189075	-0.348211	0.65719	-0.606482	1.68198	-0.353463	0.134051	1.53103	0.479587	-0.352095	-0.00241763	1.64314	-0.302273	0.0274361	1.5086	0.451494	-0.339862	-0.00241763	-0.28377	-0.0196675	-0.0344817	1.49163	-0.141954	0.376253	1.8149	2.09	1.48066	-0.173197	0.327513	1.77959	2.09
6.99	-0.556583	0.0441356	0.0179135	-0.346665	0.662056	-0.606232	1.66435	-0.350319	0.128366	1.51934	0.482777	-0.342057	-0.00241763	1.62536	-0.301166	0.0210133	1.4971	0.454934	-0.324882	-0.00241763	-0.279969	-0.0221613	-0.0319774	1.47826	-0.144003	0.369408	1.78638	2.09	1.46871	-0.172598	0.319463	1.74556	2.09
7	-0.54866	0.0443278	0.0178463	-0.345029	0.667188	-0.606151	1.64466	-0.348694	0.12169	1.50739	0.486905	-0.326976	-0.00241763	1.60622	-0.298992	0.0148013	1.48505	0.458546	-0.310457	-0.00241763	-0.277162	-0.0241734	-0.0294315	1.46373	-0.148409	0.361232	1.75704	2.09	1.45675	-0.169815	0.311199	1.70831	2.09
7.01	-0.540759	0.0439564	0.0180514	-0.343304	0.672489	-0.606158	1.62445	-0.347558	0.114297	1.49486	0.490604	-0.312684	-0.00241763	1.58684	-0.296315	0.00880881	1.47234	0.462404	-0.296714	-0.00241763	-0.273666	-0.0254336	-0.0266395	1.4479	-0.153529	0.35259	1.72609	2.09	1.44394	-0.167163	0.303777	1.66909	2.09
7.02	-0.533437	0.0429391	0.0176237	-0.341517	0.677886	-0.606115	1.60416	-0.345048	0.10642	1.4814	0.493429	-0.302353	-0.00241763	1.56796	-0.29416	0.00374626	1.4592	0.466289	-0.282519	-0.00241763	-0.268841	-0.0261006	-0.0227179	1.43072	-0.1587	0.343462	1.69392	2.09	1.43024	-0.164814	0.297627	1.62863	2.08528
7.03	-0.527704	0.0414317	0.0177675	-0.339507	0.683397	-0.606087	1.5844	-0.342565	0.0978103	1.46709	0.496227	-0.292116	-0.00241763	1.55019	-0.291423	-0.000907929	1.44515	0.469869	-0.267706	-0.00241763	-0.261411	-0.0251068	-0.0202027	1.41183	-0.161543	0.335255	1.66004	2.09	1.41362	-0.16454	0.289679	1.58941	2.07832
7.04	-0.521865	0.0397331	0.0190336	-0.337262	0.689154	-0.60613	1.56359	-0.341649	0.087934	1.45237	0.499443	-0.278714	-0.00241763	1.53171	-0.287697	-0.00561244	1.43032	0.473223	-0.251687	-0.00241763	-0.253652	-0.0229529	-0.0196792	1.39187	-0.16311	0.327992	1.62496	2.09	1.39533	-0.165938	0.280407	1.5505	2.07403
7.05	-0.513124	0.0376316	0.0196919	-0.334999	0.695244	-0.606118	1.53926	-0.340252	0.0771417	1.43713	0.502675	-0.264084	-0.00241763	1.51017	-0.284868	-0.0098963	1.41538	0.477077	-0.234337	-0.00241763	-0.249276	-0.0215406	-0.0174367	1.37172	-0.167738	0.319985	1.59054	2.09	1.37919	-0.165223	0.273805	1.50779	2.07267
7.06	-0.50286	0.0353679	0.0193846	-0.332708	0.70159	-0.606007	1.51287	-0.337259	0.0667952	1.42096	0.505997	-0.249598	-0.00241763	1.48654	-0.283215	-0.014619	1.39984	0.482005	-0.21707	-0.00241763	-0.246452	-0.02091	-0.0133028	1.35094	-0.174659	0.311908	1.55635	2.09	1.36386	-0.16228	0.26806	1.46199	2.07447
7.07	-0.494606	0.0338721	0.0196395	-0.330171	0.70803	-0.605886	1.48812	-0.33454	0.0575629	1.40395	0.509471	-0.234523	-0.00241763	1.46366	-0.28114	-0.0211572	1.38297	0.486912	-0.200083	-0.00241763	-0.24052	-0.0200686	-0.0112987	1.32861	-0.178998	0.305605	1.52004	2.09	1.34496	-0.161286	0.258165	1.41794	2.08165
